PathFileType	4	(X/Y/Z)	RBDS025\RBDS025runT35.trc
DataRate	CameraRate	NumFrames	NumMarkers	Units	OrigDataRate	OrigDataStartFrame	OrigNumFrames
150.000000	150.000000	4	33	mm	150.000000	3937	4500
Frame#	Time	L.ASIS			L.Heel.Bottom			L.Heel.Lateral			L.Heel.Top			L.Iliac.Crest			L.MT1			L.MT5			L.PSIS			L.Shank.Bottom.Lateral			L.Shank.Bottom.Medial			L.Shank.Top.Lateral			L.Shank.Top.Medial			L.Thigh.Bottom.Lateral			L.Thigh.Bottom.Medial			L.Thigh.Top.Lateral			L.Thigh.Top.Medial			R.ASIS			R.ASY			R.Heel.Bottom			R.Heel.Lateral			R.Heel.Top			R.Iliac.Crest			R.MT1			R.MT5			R.PSIS			R.Shank.Bottom.Lateral			R.Shank.Bottom.Medial			R.Shank.Top.Lateral			R.Shank.Top.Medial			R.Thigh.Bottom.Lateral			R.Thigh.Bottom.Medial			R.Thigh.Top.Lateral			R.Thigh.Top.Medial			
		X1	Y1	Z1	X2	Y2	Z2	X3	Y3	Z3	X4	Y4	Z4	X5	Y5	Z5	X6	Y6	Z6	X7	Y7	Z7	X8	Y8	Z8	X9	Y9	Z9	X10	Y10	Z10	X11	Y11	Z11	X12	Y12	Z12	X13	Y13	Z13	X14	Y14	Z14	X15	Y15	Z15	X16	Y16	Z16	X17	Y17	Z17	X18	Y18	Z18	X19	Y19	Z19	X20	Y20	Z20	X21	Y21	Z21	X22	Y22	Z22	X23	Y23	Z23	X24	Y24	Z24	X25	Y25	Z25	X26	Y26	Z26	X27	Y27	Z27	X28	Y28	Z28	X29	Y29	Z29	X30	Y30	Z30	X31	Y31	Z31	X32	Y32	Z32	X33	Y33	Z33	

3938	26.24666666666667	2157.303766320957	936.6725585256988	843.0109486079622	2164.614044034129	62.50039562336755	892.7589625820027	2190.557452744299	83.03720886608752	848.0129427793123	2170.921292654313	106.6363783569083	891.0260607964348	2085.275563344966	1023.955881868147	786.2699295229291	2370.538246495472	90.95981907880986	926.5978565026932	2342.837817251013	79.98784102863274	818.258939308917	2000.235968177808	1007.964670449223	882.8212007867129	2243.676177712659	221.7193779806123	826.7243053680629	2193.57423264406	227.5367122372954	850.8386648563155	2242.563979579791	299.5955548572788	807.6321746770689	2193.383376292704	305.7658610196279	829.453885277444	2219.281152077442	635.5909864586905	780.9074759405482	2162.318315334717	598.0540570783264	806.9042902490063	2155.288159853897	722.4631014388896	766.4842371440171	2101.234480824848	688.25555468524	794.341759490278	2150.403074283818	919.1003745059004	1042.413790869939	1641.317554038935	110.2347639112291	967.4971117294955	1498.380463602332	229.6124700997183	924.5065989094632	1520.448205250567	220.1130061265139	972.2278227882749	1537.622254594195	248.9234837006489	935.115333367303	2120.120746323896	996.4588992014874	1076.640668030065	1635.858194449685	67.93782624457533	916.8690749974774	1586.368067143957	83.05769740324553	1016.968236089328	2005.172807933123	1005.848875119778	986.1428324198239	1636.331811908784	289.3166120618852	1015.364148900578	1610.637570474298	316.0856671026705	979.7981656555369	1680.825798980303	359.1224074853823	1034.254106624476	1650.179111064765	384.373029263056	998.4557775302325	1894.850174158425	616.1946338328669	1074.310472333311	1844.245847944977	645.9377788195748	1033.379457062999	1936.166179336169	717.0202879280846	1095.884178518374	1888.589332081987	744.5964489657247	1055.295091251715	
3939	26.25333333333333	2157.838227211708	937.1244070222411	842.9819590891067	2194.863988753543	53.32544496536583	896.4349937604496	2219.472529389429	74.81790204377812	851.3955726625155	2197.404972093405	97.71872102382848	893.6756954075676	2085.463413617266	1024.69001500127	786.8601878948731	2397.112364842463	99.86391757025773	931.130216680019	2371.771556182211	83.79673281693293	822.7596069377465	2001.122257017813	1008.811895128643	883.3248826245123	2261.065587763689	218.5717892383011	828.5356868007128	2210.716422634921	221.2795584204484	852.8494298704841	2254.554892398181	295.97257590276	808.7813318294475	2205.146109847624	299.0486208794069	830.7158554862103	2215.393227424781	632.7311103687357	780.6875538230954	2158.235894565436	596.3984220524583	807.7746701742008	2152.581158012147	720.4781893416994	766.1968562770294	2098.463908190479	687.461854130968	795.0713820293763	2151.456710053265	920.0965899776478	1042.369833069881	1626.890539852421	117.2365527261436	969.4528653770795	1489.76172105624	244.0943806571069	928.0658208706906	1511.492500951477	233.0900747226894	975.6584466022423	1530.071570156365	261.3001984085697	938.7668578582575	2122.221911953263	998.1502768484123	1076.601365384079	1619.641098326701	75.25213997031013	918.7525438043733	1571.068032964387	91.65380856212671	1018.527453016224	2006.439608799982	1007.279468006727	986.6491512609076	1628.119958008173	297.470793527052	1017.998999836537	1602.894728018916	324.5998744524701	982.3821867132262	1674.066848805725	366.4769094207635	1036.410983420401	1643.863533098165	392.1286406895898	1000.559347716097	1892.663235657243	620.0309790096264	1074.974857582049	1842.722158584834	650.3690725072722	1033.731899357225	1935.422094983487	720.3144553131502	1096.555899753107	1888.476797141075	748.4833026316678	1055.590532314351	
3940	26.26	2158.371167652132	937.0864220932926	843.1477802085017	2222.985840274118	45.89086130238991	900.447956327066	2246.128660004008	68.11018761086578	855.0287581376782	2221.922523952419	90.28839563543436	896.6272932335983	2085.752069600615	1024.714317624894	787.4779380088438	2420.747277388967	109.4546268895234	934.9086196627663	2397.626251994152	88.44029876613081	826.7327805628738	2001.899393463774	1009.208103609297	883.7930700508648	2276.545828751928	216.1077047770354	830.3923708256992	2226.241517189174	215.9725574122638	855.1376253979357	2265.012397992271	292.7866939054019	810.0576818993881	2215.687730550196	293.0278185542986	832.354555668394	2211.430022953705	629.4366025370908	780.2552023945627	2154.208855964518	594.3848185271221	808.6659684475366	2149.772905713423	718.0195636815408	765.6654758225997	2095.719601702071	686.2545385855047	795.7329061484324	2152.372080710615	920.844525264748	1042.488870504183	1612.872669306097	124.8866087947304	971.4030418733117	1481.396843996433	258.3672720071889	931.8627490893035	1502.832417519329	245.9790975067799	979.2567340684886	1522.620331205157	273.5486837381875	942.4965065994302	2123.777091986127	999.4968272023824	1076.724292051782	1603.831112425954	83.35075772272377	920.6518704204919	1556.406485875914	100.887603958653	1020.268578281907	2007.491281420044	1008.288186701073	987.1423444498876	1620.618053741878	305.4417870849666	1020.570186459775	1595.867821153931	333.159021761036	985.0928613343651	1668.346770223668	373.3407229478893	1038.535758074352	1638.619782658057	399.6312268157841	1002.81015923324	1891.644782590223	622.6074164294163	1075.535232862472	1842.176169024737	653.355074115988	1034.091216237028	1935.415474485678	722.491914069519	1097.173635875818	1888.875715449411	751.0891660252009	1056.003500372922	
3941	26.26666666666667	2158.91145298256	936.6022074015265	843.4986786507752	2248.268430178045	40.00984373427764	904.7513236515535	2269.851642217621	62.71982384093033	858.8712658065998	2243.873943766043	84.21621264598821	899.8752636121901	2086.1659469109	1024.100319722821	788.0918254032148	2441.151490011759	119.0853437219096	937.8578785636662	2419.904977707179	93.36666911215165	830.1042835576008	2002.57663326712	1009.169327365274	884.2125151314511	2289.821825852722	214.1339390482248	832.3092801230609	2239.81027910721	211.4967749916551	857.7023524853704	2273.75090687748	289.9388362826008	811.483136637905	2224.771186366674	287.6824828543608	834.3783506946838	2207.542225944663	625.8713088721001	779.6963032411697	2150.392121195108	592.1312968528148	809.6182165679461	2146.963997577013	715.2172288856559	764.9737813870079	2093.11192359042	684.724283231994	796.391165889483	2153.160446426702	921.3050554258688	1042.760986448674	1599.353690611494	133.1079529717621	973.3625083784077	1473.335383001438	272.4532392361361	935.8965484926954	1494.534149778398	258.7752755783932	983.0149312160268	1515.336573970726	285.687258295326	946.2929295426804	2124.795841226758	1000.44945658183	1076.99922079003	1588.468780282572	92.15168177828431	922.562236315228	1542.430509602753	110.6900666145579	1022.211296121135	2008.3328746028	1008.842698460223	987.6058520027781	1613.874374437006	313.2274150495373	1023.097332903827	1589.629037448874	341.746500662868	987.9314530650169	1663.686561996941	379.6991597017603	1040.639130378875	1634.488054125605	406.8545315093281	1005.204027541473	1891.789354246569	623.8232664551621	1076.019220720847	1842.583686194682	654.7893657158751	1034.481921268255	1936.117092824335	723.4723558678613	1097.752002273028	1889.738128266948	752.3238521277874	1056.556661898046	
